HIERARCHY
ROOT Hips
{
	OFFSET -0.001795 -0.223333 0.028219
	CHANNELS 6 Xposition Yposition Zposition Zrotation Yrotation Xrotation 
	JOINT LeftUpLeg
	{
		OFFSET 0.069520 -0.091406 -0.006815
		CHANNELS 3 Zrotation Yrotation Xrotation
		JOINT LeftLeg
		{
			OFFSET 0.034277 -0.375199 -0.004496
			CHANNELS 3 Zrotation Yrotation Xrotation
			JOINT LeftFoot
			{
				OFFSET -0.013596 -0.397961 -0.043693
				CHANNELS 3 Zrotation Yrotation Xrotation
				JOINT LeftToe
				{
					OFFSET 0.026358 -0.055791 0.119288
					CHANNELS 3 Zrotation Yrotation Xrotation
					End Site
					{
						OFFSET 0.000000 0.000000 0.000000
					}
				}
			}
		}
	}
	JOINT RightUpLeg
	{
		OFFSET -0.067670 -0.090522 -0.004320
		CHANNELS 3 Zrotation Yrotation Xrotation
		JOINT RightLeg
		{
			OFFSET -0.038290 -0.382569 -0.008850
			CHANNELS 3 Zrotation Yrotation Xrotation
			JOINT RightFoot
			{
				OFFSET 0.015774 -0.398415 -0.042312
				CHANNELS 3 Zrotation Yrotation Xrotation
				JOINT RightToe
				{
					OFFSET -0.025372 -0.048144 0.123348
					CHANNELS 3 Zrotation Yrotation Xrotation
					End Site
					{
						OFFSET 0.000000 0.000000 0.000000
					}
				}
			}
		}
	}
	JOINT Spine
	{
		OFFSET -0.002533 0.108963 -0.026696
		CHANNELS 3 Zrotation Yrotation Xrotation
		JOINT Spine1
		{
			OFFSET 0.005487 0.135180 0.001092
			CHANNELS 3 Zrotation Yrotation Xrotation
			JOINT Spine2
			{
				OFFSET 0.001457 0.052922 0.025425
				CHANNELS 3 Zrotation Yrotation Xrotation
				JOINT Neck
				{
					OFFSET -0.002778 0.213870 -0.042857
					CHANNELS 3 Zrotation Yrotation Xrotation
					JOINT Head
					{
						OFFSET 0.005152 0.064970 0.051349
						CHANNELS 3 Zrotation Yrotation Xrotation
						End Site
						{
							OFFSET 0.000000 0.000000 0.000000
						}
					}
				}
				JOINT LeftShoulder
				{
					OFFSET 0.078845 0.121749 -0.034090
					CHANNELS 3 Zrotation Yrotation Xrotation
					JOINT LeftArm
					{
						OFFSET 0.090977 0.030469 -0.008868
						CHANNELS 3 Zrotation Yrotation Xrotation
						JOINT LeftForeArm
						{
							OFFSET 0.259612 -0.012772 -0.027456
							CHANNELS 3 Zrotation Yrotation Xrotation
							JOINT LeftHand
							{
								OFFSET 0.249234 0.008986 -0.001171
								CHANNELS 3 Zrotation Yrotation Xrotation
								End Site
								{
									OFFSET 0.000000 0.000000 0.000000
								}
							}
						}
					}
				}
				JOINT RightShoulder
				{
					OFFSET -0.081759 0.118833 -0.038615
					CHANNELS 3 Zrotation Yrotation Xrotation
					JOINT RightArm
					{
						OFFSET -0.096012 0.032551 -0.009143
						CHANNELS 3 Zrotation Yrotation Xrotation
						JOINT RightForeArm
						{
							OFFSET -0.253742 -0.013329 -0.021401
							CHANNELS 3 Zrotation Yrotation Xrotation
							JOINT RightHand
							{
								OFFSET -0.255298 0.007772 -0.005559
								CHANNELS 3 Zrotation Yrotation Xrotation
								End Site
								{
									OFFSET 0.000000 0.000000 0.000000
								}
							}
						}
					}
				}
			}
		}
	}
}
MOTION
Frames: 11
Frame Time: 0.050000
0.070309 0.959657 -0.069071 -4.327176 -12.847082 5.042066 7.156978 -0.147176 -12.069978 -8.419684 1.945812 11.274704 9.538901 18.638404 14.112246 0.000000 0.000000 0.000000 -9.460126 0.812156 -8.292899 6.168158 -0.035037 23.418555 -5.456858 -16.398172 12.982058 0.000000 0.000000 0.000000 -5.467918 1.097066 25.002526 -10.342423 3.184599 -18.948440 -1.527668 8.521925 29.538090 11.614324 -4.619133 -27.589700 0.000000 0.000000 0.000000 3.266572 -20.433402 6.535391 -55.160742 -23.018649 1.634300 26.548077 -42.882730 -7.685650 0.000000 0.000000 0.000000 15.214429 13.972808 6.671929 58.829536 37.006216 10.870999 -2.716243 57.640130 2.870993 0.000000 0.000000 0.000000 
0.071099 0.961050 -0.069511 -4.534629 -12.938041 5.017391 7.002394 -0.160225 -11.446917 -8.110600 1.745175 9.630181 9.637931 18.761848 14.397659 0.000000 0.000000 0.000000 -10.321809 0.812912 -7.766095 6.877199 -0.079371 26.982273 -4.999127 -15.850986 14.434838 0.000000 0.000000 0.000000 -6.016241 1.217405 24.603105 -10.289079 3.207240 -18.384702 -1.694831 9.021110 29.091533 12.622325 -4.925738 -28.430461 0.000000 0.000000 0.000000 4.034827 -19.724248 6.209835 -55.051917 -22.323705 1.280178 24.252728 -41.554679 -6.687465 0.000000 0.000000 0.000000 14.629069 14.054242 6.723672 59.629698 37.678420 11.644998 -3.213097 61.436402 2.993439 0.000000 0.000000 0.000000 
0.071100 0.962587 -0.070087 -5.005906 -12.957124 5.476756 7.006215 -0.159597 -10.743739 -7.492329 1.453596 7.413998 9.507399 18.471992 15.559452 0.000000 0.000000 0.000000 -10.838855 0.823885 -7.027678 7.403179 -0.125253 29.688210 -5.108380 -16.118400 15.251236 0.000000 0.000000 0.000000 -6.280411 1.242552 23.912952 -10.269385 3.193835 -18.427026 -1.558161 9.361259 29.289371 13.256681 -5.063922 -29.294631 0.000000 0.000000 0.000000 4.870934 -19.097170 5.917802 -55.017894 -21.382532 0.781386 20.867026 -40.090628 -5.287004 0.000000 0.000000 0.000000 13.525369 13.929611 6.588814 60.808414 38.353717 12.498295 -3.125840 64.490874 3.436681 0.000000 0.000000 0.000000 
0.070730 0.963837 -0.070810 -5.786819 -13.062527 6.025505 7.472099 -0.106575 -10.594356 -6.774994 1.226881 6.054387 9.538399 18.469184 15.856599 0.000000 0.000000 0.000000 -11.299526 0.845871 -6.030572 7.711273 -0.098668 32.328489 -6.033242 -17.729147 16.610289 0.000000 0.000000 0.000000 -6.298949 1.199690 23.133583 -10.360465 3.213990 -18.419843 -1.427544 9.722440 29.053586 13.296587 -4.949687 -29.657638 0.000000 0.000000 0.000000 5.702418 -17.701252 5.425883 -55.279860 -20.035802 0.143842 16.897281 -38.681091 -3.791002 0.000000 0.000000 0.000000 13.152825 13.838085 6.545394 61.887491 38.284517 12.900591 -4.344370 67.672977 3.044052 0.000000 0.000000 0.000000 
0.070283 0.965684 -0.071628 -6.629409 -13.159938 6.542690 8.162388 -0.031410 -10.198993 -6.241602 1.066492 4.877278 9.386132 18.143172 17.105281 0.000000 0.000000 0.000000 -11.443167 0.863479 -4.949805 8.010524 -0.121045 33.919638 -6.439229 -18.345532 16.892822 0.000000 0.000000 0.000000 -6.504001 1.234884 22.775811 -10.358745 3.176568 -18.847790 -0.714423 10.047360 29.031035 13.212387 -4.719954 -30.306721 0.000000 0.000000 0.000000 6.087552 -16.700410 5.118342 -55.135951 -18.217883 -0.747540 12.867306 -36.902461 -2.365747 0.000000 0.000000 0.000000 12.700427 12.851938 6.066241 62.876171 37.908235 13.065849 -3.830406 70.110137 3.742812 0.000000 0.000000 0.000000 
0.069847 0.967663 -0.072409 -7.532392 -13.513711 7.116197 8.881009 0.055312 -10.032827 -5.649524 0.926707 3.995288 9.613370 18.386161 17.661176 0.000000 0.000000 0.000000 -11.523889 0.891972 -4.471589 8.377201 -0.115879 35.817634 -5.894406 -17.585919 17.592514 0.000000 0.000000 0.000000 -6.294917 1.165824 22.252749 -10.245599 3.129011 -18.870366 -0.382127 10.126996 28.828203 13.376056 -4.771939 -30.558275 0.000000 0.000000 0.000000 6.696350 -15.118918 4.618862 -55.661043 -16.440448 -1.529996 10.035840 -35.472100 -1.385170 0.000000 0.000000 0.000000 12.739121 12.572526 5.914819 63.842150 37.824101 13.342190 -3.251129 70.784271 4.253824 0.000000 0.000000 0.000000 
0.069453 0.968693 -0.072296 -8.574444 -14.093857 7.863451 9.854417 0.180867 -10.098790 -5.476130 0.874228 3.091879 10.203779 19.065592 18.850082 0.000000 0.000000 0.000000 -11.137527 0.902593 -4.080648 8.147102 0.102272 36.368269 -4.946376 -16.359424 18.801953 0.000000 0.000000 0.000000 -6.327206 1.154871 21.485361 -9.726063 2.949943 -18.907713 -0.216400 10.528792 28.268598 14.754801 -5.559848 -30.209689 0.000000 0.000000 0.000000 7.504799 -14.140699 4.292101 -56.093268 -13.776208 -2.727950 6.861352 -35.106408 -0.426592 0.000000 0.000000 0.000000 13.593229 11.712050 5.590493 63.955723 37.007565 12.867835 0.040214 72.522948 6.846082 0.000000 0.000000 0.000000 
0.069060 0.970101 -0.070689 -9.398308 -14.629530 8.199314 10.157773 0.235561 -10.025608 -5.265305 0.844368 3.017780 10.544082 19.472679 18.917352 0.000000 0.000000 0.000000 -11.356834 0.937773 -2.970364 8.103164 0.164263 35.839261 -4.464182 -16.096756 21.584193 0.000000 0.000000 0.000000 -6.154590 1.092500 20.859814 -9.639561 2.881495 -19.389146 0.216862 10.472017 28.802376 14.752984 -5.441612 -31.252364 0.000000 0.000000 0.000000 7.414035 -13.840070 4.187217 -55.370118 -11.560552 -3.740471 4.480827 -33.743310 0.305033 0.000000 0.000000 0.000000 14.180952 10.863721 5.150206 64.148856 36.284506 12.312197 7.355608 72.774654 12.227818 0.000000 0.000000 0.000000 
0.068898 0.970736 -0.067244 -10.093292 -15.028211 8.288061 10.380118 0.277719 -10.065416 -4.934242 0.799213 3.284638 11.009631 19.988372 19.907862 0.000000 0.000000 0.000000 -10.741487 0.898484 -2.237784 7.548626 0.311703 33.934915 -5.702652 -17.982270 22.400047 0.000000 0.000000 0.000000 -5.727695 0.959174 20.192699 -8.953065 2.655584 -19.677501 0.293302 10.269470 29.606452 14.678794 -5.530880 -31.256685 0.000000 0.000000 0.000000 8.021042 -12.315989 3.675721 -55.462333 -9.738884 -4.573240 2.438648 -33.571523 0.957344 0.000000 0.000000 0.000000 14.930220 10.118122 4.751041 63.445236 36.230019 11.847708 13.461449 71.043867 16.119592 0.000000 0.000000 0.000000 
0.069259 0.971456 -0.062090 -10.475118 -15.425763 8.369758 10.449893 0.290957 -9.737578 -4.435435 0.725060 3.651975 10.869352 19.727631 20.141978 0.000000 0.000000 0.000000 -10.302204 0.873073 -2.640777 8.034974 0.027058 31.255793 -5.326897 -17.683505 23.460287 0.000000 0.000000 0.000000 -5.998740 0.992787 19.597065 -7.686841 2.283862 -19.327835 0.236013 9.765620 29.526541 14.044571 -5.370746 -30.989437 0.000000 0.000000 0.000000 7.110985 -12.153321 3.664177 -54.692848 -7.696941 -5.380259 1.703974 -33.992095 1.240640 0.000000 0.000000 0.000000 14.899070 10.528531 4.789371 62.190756 35.927512 11.199119 17.994194 68.790729 18.207960 0.000000 0.000000 0.000000 
0.070016 0.972349 -0.055888 -10.085055 -16.486689 7.683714 9.837472 0.250099 -8.912312 -4.457410 0.742605 3.543662 11.535326 20.442421 21.176299 0.000000 0.000000 0.000000 -9.291358 0.812712 -3.322179 7.334680 0.202122 28.313650 -5.171710 -17.765617 24.102011 0.000000 0.000000 0.000000 -5.933311 1.014886 19.688166 -7.967940 2.372659 -18.742619 0.250498 9.552029 28.732147 13.874183 -5.666417 -29.566251 0.000000 0.000000 0.000000 6.528659 -12.532169 3.792397 -53.809618 -6.966160 -5.494743 1.697376 -34.101575 1.277810 0.000000 0.000000 0.000000 14.819096 10.851992 4.753629 61.484703 35.616560 10.828780 19.775890 66.377652 18.157000 0.000000 0.000000 0.000000 
